<mxfile host="app.diagrams.net" agent="Mozilla/5.0 (Windows NT 10.0; Win64; x64) AppleWebKit/537.36 (KHTML, like Gecko) Chrome/134.0.0.0 Safari/537.36" version="26.1.1">
  <diagram name="第 1 页" id="0FoiJe2aPeVPfy-v3KyT">
    <mxGraphModel dx="3363" dy="1122" grid="1" gridSize="10" guides="1" tooltips="1" connect="1" arrows="1" fold="1" page="1" pageScale="1" pageWidth="827" pageHeight="1169" math="0" shadow="0">
      <root>
        <mxCell id="0" />
        <mxCell id="1" parent="0" />
        <mxCell id="_8nwMoLsQrSlDSO3Y1a6-1" value="问题反馈组件" style="shape=table;childLayout=tableLayout;startSize=30;collapsible=0;recursiveResize=0;expand=0;fontSize=16;" vertex="1" parent="1">
          <mxGeometry x="-860" y="120" width="1360" height="1040" as="geometry" />
        </mxCell>
        <mxCell id="_8nwMoLsQrSlDSO3Y1a6-2" value="普通用户" style="shape=tableRow;horizontal=0;swimlaneHead=0;swimlaneBody=0;top=0;left=0;strokeColor=inherit;bottom=0;right=0;dropTarget=0;fontStyle=0;fillColor=none;points=[[0,0.5],[1,0.5]];portConstraint=eastwest;startSize=40;collapsible=0;recursiveResize=0;expand=0;fontSize=16;" vertex="1" parent="_8nwMoLsQrSlDSO3Y1a6-1">
          <mxGeometry y="30" width="1360" height="263" as="geometry" />
        </mxCell>
        <mxCell id="_8nwMoLsQrSlDSO3Y1a6-4" value="门户首页 " style="swimlane;swimlaneHead=0;swimlaneBody=0;fontStyle=0;strokeColor=inherit;connectable=0;fillColor=none;startSize=40;collapsible=0;recursiveResize=0;expand=0;fontSize=16;" vertex="1" parent="_8nwMoLsQrSlDSO3Y1a6-2">
          <mxGeometry x="40" width="290" height="263" as="geometry">
            <mxRectangle width="290" height="263" as="alternateBounds" />
          </mxGeometry>
        </mxCell>
        <mxCell id="_8nwMoLsQrSlDSO3Y1a6-17" value="视图管理" style="swimlane;swimlaneHead=0;swimlaneBody=0;fontStyle=0;strokeColor=inherit;connectable=0;fillColor=none;startSize=40;collapsible=0;recursiveResize=0;expand=0;fontSize=16;" vertex="1" parent="_8nwMoLsQrSlDSO3Y1a6-2">
          <mxGeometry x="330" width="340" height="263" as="geometry">
            <mxRectangle width="340" height="263" as="alternateBounds" />
          </mxGeometry>
        </mxCell>
        <mxCell id="_8nwMoLsQrSlDSO3Y1a6-14" value="视图编辑器" style="swimlane;swimlaneHead=0;swimlaneBody=0;fontStyle=0;strokeColor=inherit;connectable=0;fillColor=none;startSize=40;collapsible=0;recursiveResize=0;expand=0;fontSize=16;" vertex="1" parent="_8nwMoLsQrSlDSO3Y1a6-2">
          <mxGeometry x="670" width="360" height="263" as="geometry">
            <mxRectangle width="360" height="263" as="alternateBounds" />
          </mxGeometry>
        </mxCell>
        <mxCell id="_8nwMoLsQrSlDSO3Y1a6-5" value="问题反馈系统" style="swimlane;swimlaneHead=0;swimlaneBody=0;fontStyle=0;strokeColor=inherit;connectable=0;fillColor=none;startSize=40;collapsible=0;recursiveResize=0;expand=0;fontSize=16;" vertex="1" parent="_8nwMoLsQrSlDSO3Y1a6-2">
          <mxGeometry x="1030" width="330" height="263" as="geometry">
            <mxRectangle width="330" height="263" as="alternateBounds" />
          </mxGeometry>
        </mxCell>
        <mxCell id="_8nwMoLsQrSlDSO3Y1a6-6" value="管理员" style="shape=tableRow;horizontal=0;swimlaneHead=0;swimlaneBody=0;top=0;left=0;strokeColor=inherit;bottom=0;right=0;dropTarget=0;fontStyle=0;fillColor=none;points=[[0,0.5],[1,0.5]];portConstraint=eastwest;startSize=40;collapsible=0;recursiveResize=0;expand=0;fontSize=16;" vertex="1" parent="_8nwMoLsQrSlDSO3Y1a6-1">
          <mxGeometry y="293" width="1360" height="747" as="geometry" />
        </mxCell>
        <mxCell id="_8nwMoLsQrSlDSO3Y1a6-8" value="" style="swimlane;swimlaneHead=0;swimlaneBody=0;fontStyle=0;connectable=0;strokeColor=inherit;fillColor=none;startSize=0;collapsible=0;recursiveResize=0;expand=0;fontSize=16;" vertex="1" parent="_8nwMoLsQrSlDSO3Y1a6-6">
          <mxGeometry x="40" width="290" height="747" as="geometry">
            <mxRectangle width="290" height="747" as="alternateBounds" />
          </mxGeometry>
        </mxCell>
        <mxCell id="_8nwMoLsQrSlDSO3Y1a6-18" style="swimlane;swimlaneHead=0;swimlaneBody=0;fontStyle=0;connectable=0;strokeColor=inherit;fillColor=none;startSize=0;collapsible=0;recursiveResize=0;expand=0;fontSize=16;" vertex="1" parent="_8nwMoLsQrSlDSO3Y1a6-6">
          <mxGeometry x="330" width="340" height="747" as="geometry">
            <mxRectangle width="340" height="747" as="alternateBounds" />
          </mxGeometry>
        </mxCell>
        <mxCell id="_8nwMoLsQrSlDSO3Y1a6-34" value="" style="group" vertex="1" connectable="0" parent="_8nwMoLsQrSlDSO3Y1a6-18">
          <mxGeometry x="62" y="17" width="576" height="178" as="geometry" />
        </mxCell>
        <mxCell id="_8nwMoLsQrSlDSO3Y1a6-26" value="开始" style="rounded=1;whiteSpace=wrap;html=1;" vertex="1" parent="_8nwMoLsQrSlDSO3Y1a6-34">
          <mxGeometry x="487" width="84" height="38" as="geometry" />
        </mxCell>
        <mxCell id="_8nwMoLsQrSlDSO3Y1a6-21" value="创建视图" style="rounded=0;whiteSpace=wrap;html=1;" vertex="1" parent="_8nwMoLsQrSlDSO3Y1a6-34">
          <mxGeometry y="135" width="94" height="43" as="geometry" />
        </mxCell>
        <mxCell id="_8nwMoLsQrSlDSO3Y1a6-20" value="开始" style="rounded=1;whiteSpace=wrap;html=1;" vertex="1" parent="_8nwMoLsQrSlDSO3Y1a6-34">
          <mxGeometry x="5" y="60" width="84" height="38" as="geometry" />
        </mxCell>
        <mxCell id="_8nwMoLsQrSlDSO3Y1a6-22" value="视图授权" style="rounded=0;whiteSpace=wrap;html=1;" vertex="1" parent="_8nwMoLsQrSlDSO3Y1a6-34">
          <mxGeometry x="162" y="135" width="94" height="43" as="geometry" />
        </mxCell>
        <mxCell id="_8nwMoLsQrSlDSO3Y1a6-23" value="拖拽问题反馈组件" style="rounded=0;whiteSpace=wrap;html=1;" vertex="1" parent="_8nwMoLsQrSlDSO3Y1a6-34">
          <mxGeometry x="332" y="135" width="94" height="43" as="geometry" />
        </mxCell>
        <mxCell id="_8nwMoLsQrSlDSO3Y1a6-24" value="进行相关配置" style="rounded=0;whiteSpace=wrap;html=1;" vertex="1" parent="_8nwMoLsQrSlDSO3Y1a6-34">
          <mxGeometry x="482" y="135" width="94" height="43" as="geometry" />
        </mxCell>
        <mxCell id="_8nwMoLsQrSlDSO3Y1a6-27" value="点击保存" style="rounded=0;whiteSpace=wrap;html=1;" vertex="1" parent="_8nwMoLsQrSlDSO3Y1a6-34">
          <mxGeometry x="482" y="70" width="94" height="43" as="geometry" />
        </mxCell>
        <mxCell id="_8nwMoLsQrSlDSO3Y1a6-33" style="edgeStyle=orthogonalEdgeStyle;rounded=0;orthogonalLoop=1;jettySize=auto;html=1;entryX=0.5;entryY=0;entryDx=0;entryDy=0;" edge="1" parent="_8nwMoLsQrSlDSO3Y1a6-34" source="_8nwMoLsQrSlDSO3Y1a6-20" target="_8nwMoLsQrSlDSO3Y1a6-21">
          <mxGeometry relative="1" as="geometry" />
        </mxCell>
        <mxCell id="_8nwMoLsQrSlDSO3Y1a6-32" style="edgeStyle=orthogonalEdgeStyle;rounded=0;orthogonalLoop=1;jettySize=auto;html=1;entryX=0;entryY=0.5;entryDx=0;entryDy=0;" edge="1" parent="_8nwMoLsQrSlDSO3Y1a6-34" source="_8nwMoLsQrSlDSO3Y1a6-21" target="_8nwMoLsQrSlDSO3Y1a6-22">
          <mxGeometry relative="1" as="geometry" />
        </mxCell>
        <mxCell id="_8nwMoLsQrSlDSO3Y1a6-31" style="edgeStyle=orthogonalEdgeStyle;rounded=0;orthogonalLoop=1;jettySize=auto;html=1;entryX=0;entryY=0.5;entryDx=0;entryDy=0;" edge="1" parent="_8nwMoLsQrSlDSO3Y1a6-34" source="_8nwMoLsQrSlDSO3Y1a6-22" target="_8nwMoLsQrSlDSO3Y1a6-23">
          <mxGeometry relative="1" as="geometry" />
        </mxCell>
        <mxCell id="_8nwMoLsQrSlDSO3Y1a6-30" style="edgeStyle=orthogonalEdgeStyle;rounded=0;orthogonalLoop=1;jettySize=auto;html=1;entryX=0;entryY=0.5;entryDx=0;entryDy=0;" edge="1" parent="_8nwMoLsQrSlDSO3Y1a6-34" source="_8nwMoLsQrSlDSO3Y1a6-23" target="_8nwMoLsQrSlDSO3Y1a6-24">
          <mxGeometry relative="1" as="geometry" />
        </mxCell>
        <mxCell id="_8nwMoLsQrSlDSO3Y1a6-28" value="" style="edgeStyle=orthogonalEdgeStyle;rounded=0;orthogonalLoop=1;jettySize=auto;html=1;" edge="1" parent="_8nwMoLsQrSlDSO3Y1a6-34" source="_8nwMoLsQrSlDSO3Y1a6-27" target="_8nwMoLsQrSlDSO3Y1a6-26">
          <mxGeometry relative="1" as="geometry" />
        </mxCell>
        <mxCell id="_8nwMoLsQrSlDSO3Y1a6-29" style="edgeStyle=orthogonalEdgeStyle;rounded=0;orthogonalLoop=1;jettySize=auto;html=1;entryX=0.5;entryY=1;entryDx=0;entryDy=0;" edge="1" parent="_8nwMoLsQrSlDSO3Y1a6-34" source="_8nwMoLsQrSlDSO3Y1a6-24" target="_8nwMoLsQrSlDSO3Y1a6-27">
          <mxGeometry relative="1" as="geometry" />
        </mxCell>
        <mxCell id="_8nwMoLsQrSlDSO3Y1a6-15" style="swimlane;swimlaneHead=0;swimlaneBody=0;fontStyle=0;connectable=0;strokeColor=inherit;fillColor=none;startSize=0;collapsible=0;recursiveResize=0;expand=0;fontSize=16;" vertex="1" parent="_8nwMoLsQrSlDSO3Y1a6-6">
          <mxGeometry x="670" width="360" height="747" as="geometry">
            <mxRectangle width="360" height="747" as="alternateBounds" />
          </mxGeometry>
        </mxCell>
        <mxCell id="_8nwMoLsQrSlDSO3Y1a6-9" value="" style="swimlane;swimlaneHead=0;swimlaneBody=0;fontStyle=0;connectable=0;strokeColor=inherit;fillColor=none;startSize=0;collapsible=0;recursiveResize=0;expand=0;fontSize=16;" vertex="1" parent="_8nwMoLsQrSlDSO3Y1a6-6">
          <mxGeometry x="1030" width="330" height="747" as="geometry">
            <mxRectangle width="330" height="747" as="alternateBounds" />
          </mxGeometry>
        </mxCell>
        <mxCell id="_8nwMoLsQrSlDSO3Y1a6-35" value="查看所有问题列表" style="rounded=0;whiteSpace=wrap;html=1;" vertex="1" parent="_8nwMoLsQrSlDSO3Y1a6-9">
          <mxGeometry x="-940" y="557" width="120" height="43" as="geometry" />
        </mxCell>
        <mxCell id="_8nwMoLsQrSlDSO3Y1a6-37" value="回复问题" style="rounded=0;whiteSpace=wrap;html=1;" vertex="1" parent="_8nwMoLsQrSlDSO3Y1a6-9">
          <mxGeometry x="-940" y="627" width="120" height="43" as="geometry" />
        </mxCell>
        <mxCell id="_8nwMoLsQrSlDSO3Y1a6-39" value="管理问题" style="rounded=0;whiteSpace=wrap;html=1;" vertex="1" parent="_8nwMoLsQrSlDSO3Y1a6-9">
          <mxGeometry x="-940" y="687" width="120" height="43" as="geometry" />
        </mxCell>
        <mxCell id="_8nwMoLsQrSlDSO3Y1a6-44" value="接受问题" style="rounded=0;whiteSpace=wrap;html=1;" vertex="1" parent="_8nwMoLsQrSlDSO3Y1a6-9">
          <mxGeometry x="-940" y="497" width="120" height="43" as="geometry" />
        </mxCell>
        <mxCell id="_8nwMoLsQrSlDSO3Y1a6-36" value="查询所有问题列表" style="rounded=0;whiteSpace=wrap;html=1;" vertex="1" parent="_8nwMoLsQrSlDSO3Y1a6-9">
          <mxGeometry x="30" y="557" width="120" height="43" as="geometry" />
        </mxCell>
        <mxCell id="_8nwMoLsQrSlDSO3Y1a6-38" value="回复成功" style="rounded=0;whiteSpace=wrap;html=1;" vertex="1" parent="_8nwMoLsQrSlDSO3Y1a6-9">
          <mxGeometry x="30" y="627" width="120" height="43" as="geometry" />
        </mxCell>
        <mxCell id="_8nwMoLsQrSlDSO3Y1a6-40" value="统计、导出" style="rounded=0;whiteSpace=wrap;html=1;" vertex="1" parent="_8nwMoLsQrSlDSO3Y1a6-9">
          <mxGeometry x="30" y="687" width="120" height="43" as="geometry" />
        </mxCell>
        <mxCell id="_8nwMoLsQrSlDSO3Y1a6-45" value="接受成功" style="rounded=0;whiteSpace=wrap;html=1;" vertex="1" parent="_8nwMoLsQrSlDSO3Y1a6-9">
          <mxGeometry x="30" y="497" width="120" height="43" as="geometry" />
        </mxCell>
        <mxCell id="_8nwMoLsQrSlDSO3Y1a6-42" style="edgeStyle=orthogonalEdgeStyle;rounded=0;orthogonalLoop=1;jettySize=auto;html=1;entryX=0;entryY=0.5;entryDx=0;entryDy=0;" edge="1" parent="_8nwMoLsQrSlDSO3Y1a6-9" source="_8nwMoLsQrSlDSO3Y1a6-37" target="_8nwMoLsQrSlDSO3Y1a6-38">
          <mxGeometry relative="1" as="geometry" />
        </mxCell>
        <mxCell id="_8nwMoLsQrSlDSO3Y1a6-43" style="edgeStyle=orthogonalEdgeStyle;rounded=0;orthogonalLoop=1;jettySize=auto;html=1;entryX=0;entryY=0.5;entryDx=0;entryDy=0;" edge="1" parent="_8nwMoLsQrSlDSO3Y1a6-9" source="_8nwMoLsQrSlDSO3Y1a6-39" target="_8nwMoLsQrSlDSO3Y1a6-40">
          <mxGeometry relative="1" as="geometry" />
        </mxCell>
        <mxCell id="_8nwMoLsQrSlDSO3Y1a6-46" style="edgeStyle=orthogonalEdgeStyle;rounded=0;orthogonalLoop=1;jettySize=auto;html=1;entryX=1;entryY=0.5;entryDx=0;entryDy=0;" edge="1" parent="_8nwMoLsQrSlDSO3Y1a6-9" source="_8nwMoLsQrSlDSO3Y1a6-36" target="_8nwMoLsQrSlDSO3Y1a6-35">
          <mxGeometry relative="1" as="geometry" />
        </mxCell>
        <mxCell id="_8nwMoLsQrSlDSO3Y1a6-47" style="edgeStyle=orthogonalEdgeStyle;rounded=0;orthogonalLoop=1;jettySize=auto;html=1;entryX=0;entryY=0.5;entryDx=0;entryDy=0;" edge="1" parent="_8nwMoLsQrSlDSO3Y1a6-9" source="_8nwMoLsQrSlDSO3Y1a6-44" target="_8nwMoLsQrSlDSO3Y1a6-45">
          <mxGeometry relative="1" as="geometry" />
        </mxCell>
      </root>
    </mxGraphModel>
  </diagram>
</mxfile>
